HIERARCHY
ROOT joint_Root
{
	OFFSET 0.0 0.0 0.0
	CHANNELS 6 Xposition Yposition Zposition Zrotation Xrotation Yrotation 
	JOINT Hips
	{
		OFFSET 4.5925 91.4895 -427.239
		CHANNELS 6 Xposition Yposition Zposition Zrotation Xrotation Yrotation 
		JOINT Spine
		{
			OFFSET 15.7357 0.0 0.0
			CHANNELS 6 Xposition Yposition Zposition Zrotation Xrotation Yrotation 
			JOINT Chest
			{
				OFFSET 8.98455 -0.406207 0.0
				CHANNELS 6 Xposition Yposition Zposition Zrotation Xrotation Yrotation 
				JOINT Neck
				{
					OFFSET 16.3773 0.0 0.0
					CHANNELS 6 Xposition Yposition Zposition Zrotation Xrotation Yrotation 
					JOINT Head
					{
						OFFSET 6.45672 0.0 0.0
						CHANNELS 6 Xposition Yposition Zposition Zrotation Xrotation Yrotation 
						End Site
						{
							OFFSET 0.0 0.0 0.0
						}
					}
				}
				JOINT Shoulder_L
				{
					OFFSET 12.9942 -0.242716 4.98039
					CHANNELS 6 Xposition Yposition Zposition Zrotation Xrotation Yrotation 
					JOINT UpperArm_L
					{
						OFFSET 5.34809 0.0 0.0
						CHANNELS 6 Xposition Yposition Zposition Zrotation Xrotation Yrotation 
						JOINT LowerArm_L
						{
							OFFSET 24.3286 1.87007e-05 0.0
							CHANNELS 6 Xposition Yposition Zposition Zrotation Xrotation Yrotation 
							JOINT Hand_L
							{
								OFFSET 22.2916 0.0 0.0
								CHANNELS 6 Xposition Yposition Zposition Zrotation Xrotation Yrotation 
								End Site
								{
									OFFSET 0.0 0.0 0.0
								}
							}
						}
					}
				}
				JOINT Shoulder_R
				{
					OFFSET 12.9945 -0.242716 -4.98039
					CHANNELS 6 Xposition Yposition Zposition Zrotation Xrotation Yrotation 
					JOINT UpperArm_R
					{
						OFFSET -5.34813 0.0 0.0
						CHANNELS 6 Xposition Yposition Zposition Zrotation Xrotation Yrotation 
						JOINT LowerArm_R
						{
							OFFSET -24.3289 0.000322201 0.0
							CHANNELS 6 Xposition Yposition Zposition Zrotation Xrotation Yrotation 
							JOINT Hand_R
							{
								OFFSET -22.2915 -0.000108084 0.0
								CHANNELS 6 Xposition Yposition Zposition Zrotation Xrotation Yrotation 
								End Site
								{
									OFFSET 0.0 0.0 0.0
								}
							}
						}
					}
				}
			}
		}
		JOINT UpperLeg_L
		{
			OFFSET -2.19248 -6.46944 0.0
			CHANNELS 6 Xposition Yposition Zposition Zrotation Xrotation Yrotation 
			JOINT LowerLeg_L
			{
				OFFSET 39.0811 0.0 -1.23785e-05
				CHANNELS 6 Xposition Yposition Zposition Zrotation Xrotation Yrotation 
				JOINT Foot_L
				{
					OFFSET 40.9854 0.0 -1.26872e-05
					CHANNELS 6 Xposition Yposition Zposition Zrotation Xrotation Yrotation 
					JOINT Toes_L
					{
						OFFSET 11.7543 0.0 0.0
						CHANNELS 6 Xposition Yposition Zposition Zrotation Xrotation Yrotation 
						End Site
						{
							OFFSET 0.0 0.0 0.0
						}
					}
				}
			}
		}
		JOINT UpperLeg_R
		{
			OFFSET -2.19251 6.46944 0.0
			CHANNELS 6 Xposition Yposition Zposition Zrotation Xrotation Yrotation 
			JOINT LowerLeg_R
			{
				OFFSET -39.0811 -0.00228153 -0.0401928
				CHANNELS 6 Xposition Yposition Zposition Zrotation Xrotation Yrotation 
				JOINT Foot_R
				{
					OFFSET -40.9854 0.0 0.0
					CHANNELS 6 Xposition Yposition Zposition Zrotation Xrotation Yrotation 
					JOINT Toes_R
					{
						OFFSET -11.7543 0.0 0.0
						CHANNELS 6 Xposition Yposition Zposition Zrotation Xrotation Yrotation 
						End Site
						{
							OFFSET 0.0 0.0 0.0
						}
					}
				}
			}
		}
	}
}
MOTION
Frames:	4
Frame Time:	0.0333333
0.000000 0.000000 0.000000 0.000000 0.000000 -0.000000 2.412000 90.423400 -0.310193 90.863900 -4.773190 10.309900 15.735700 0.000005 -0.000001 88.106100 81.440100 -89.178000 8.984550 -0.406207 -0.000000 9.340170 -0.577351 -2.094920 16.377300 -0.000001 -0.000001 11.704700 -1.536250 -1.878030 6.456720 -0.000001 -0.000000 1.860060 -0.497016 -6.922050 12.994200 -0.242716 4.980390 -92.094300 6.880830 -73.025800 5.348090 -0.000007 -0.000001 -60.135600 39.688400 -17.987900 24.328600 0.000019 0.000005 8.486590 23.801000 -20.291100 22.291600 -0.000001 0.000005 9.475100 5.316040 -0.382188 12.994500 -0.242716 -4.980390 88.376200 10.504400 -81.161700 -5.348130 -0.000001 -0.000004 -61.732700 37.356400 -14.269700 -24.328900 0.000322 -0.000009 1.306190 3.712550 -19.413100 -22.291500 -0.000108 -0.000004 14.500300 5.450360 -4.652480 -2.192480 -6.469440 -0.000000 -177.725000 -15.398200 0.830939 39.081100 -0.000007 -0.000012 -0.125651 0.205741 31.413700 40.985400 -0.000006 -0.000013 2.299710 4.068820 -72.072000 11.754300 -0.000000 0.000003 -0.000172 -0.001634 -16.639500 -2.192510 6.469440 -0.000001 170.390000 19.701300 -179.189000 -39.081100 -0.002282 -0.040193 -0.092206 0.150254 32.440400 -40.985400 0.000008 0.000006 2.815370 11.019000 -72.142600 -11.754300 -0.000006 -0.000006 -0.002827 -0.038628 -18.144000
0.000000 0.000000 0.000000 0.000000 0.000000 -0.000000 2.491020 90.414000 -0.365091 90.887700 -4.701280 10.510400 15.735700 0.000005 -0.000001 88.076500 81.371100 -89.199500 8.984550 -0.406207 -0.000000 9.477600 -0.592698 -2.195060 16.377300 -0.000001 -0.000001 12.360400 -1.472340 -2.050880 6.456720 -0.000001 -0.000000 2.299860 -0.439988 -7.275390 12.994200 -0.242716 4.980390 -92.103500 6.861300 -72.910200 5.348090 -0.000007 -0.000001 -59.871900 39.693700 -18.302600 24.328600 0.000019 0.000005 8.556220 23.616500 -20.584100 22.291600 -0.000001 0.000005 9.611090 5.314090 -0.326394 12.994500 -0.242716 -4.980390 88.342500 10.404100 -80.896400 -5.348130 -0.000001 -0.000004 -61.176700 36.131300 -14.763700 -24.328900 0.000322 -0.000009 1.423170 3.937570 -19.903000 -22.291500 -0.000108 -0.000004 14.578700 5.447730 -4.558780 -2.192480 -6.469440 -0.000000 -177.750000 -15.392900 0.961280 39.081100 -0.000007 -0.000012 -0.127154 0.207747 31.469400 40.985400 -0.000006 -0.000013 2.371970 4.103630 -72.067500 11.754300 -0.000000 0.000003 -0.000169 -0.001603 -16.638300 -2.192510 6.469440 -0.000001 170.238000 19.726000 -179.032000 -39.081100 -0.002282 -0.040193 -0.091740 0.149187 32.498500 -40.985400 0.000008 0.000006 2.758430 11.040900 -72.119900 -11.754300 -0.000006 -0.000006 -0.002745 -0.037687 -18.105700
0.000000 0.000000 0.000000 0.000000 0.000000 -0.000000 2.563950 90.396300 -0.417157 90.879200 -4.665220 10.697000 15.735700 0.000005 -0.000001 87.976900 81.323000 -89.153100 8.984550 -0.406207 -0.000000 9.572210 -0.627580 -2.298090 16.377300 -0.000001 -0.000001 13.105300 -1.360400 -2.233490 6.456720 -0.000001 -0.000000 2.843270 -0.311820 -7.556840 12.994200 -0.242716 4.980390 -92.094800 6.784540 -72.796800 5.348090 -0.000007 -0.000001 -59.728100 39.554000 -18.543900 24.328600 0.000019 0.000005 8.709190 23.569600 -20.961500 22.291600 -0.000001 0.000005 9.621870 5.313560 -0.310979 12.994500 -0.242716 -4.980390 88.330200 10.287200 -80.728600 -5.348130 -0.000001 -0.000004 -60.469400 34.567900 -15.295800 -24.328900 0.000322 -0.000009 1.498900 3.967620 -20.729200 -22.291500 -0.000108 -0.000004 14.645300 5.448380 -4.582770 -2.192480 -6.469440 -0.000000 -177.740000 -15.431300 1.060280 39.081100 -0.000007 -0.000012 -0.122620 0.199461 31.581700 40.985400 -0.000006 -0.000013 2.453380 4.158570 -72.099600 11.754300 -0.000000 0.000003 -0.000159 -0.001529 -16.635600 -2.192510 6.469440 -0.000001 170.095000 19.759100 -178.893000 -39.081100 -0.002282 -0.040193 -0.102935 0.166397 32.555100 -40.985400 0.000008 0.000006 2.566510 11.150800 -72.058800 -11.754300 -0.000006 -0.000006 -0.002820 -0.038551 -18.140900
0.000000 0.000000 0.000000 0.000000 0.000000 -0.000000 2.653120 90.382200 -0.484523 90.860100 -4.725680 10.915600 15.735700 0.000005 -0.000001 88.078100 81.288800 -89.312200 8.984550 -0.406207 -0.000000 9.641650 -0.601031 -2.415750 16.377300 -0.000001 -0.000001 13.904900 -1.276920 -2.449220 6.456720 -0.000001 -0.000000 3.547290 -0.255458 -7.707240 12.994200 -0.242716 4.980390 -92.069800 6.684320 -72.751500 5.348090 -0.000007 -0.000001 -59.592000 39.504800 -18.778200 24.328600 0.000019 0.000005 8.758760 23.365700 -21.230100 22.291600 -0.000001 0.000005 9.730820 5.315750 -0.373454 12.994500 -0.242716 -4.980390 88.320500 10.165500 -80.567600 -5.348130 -0.000001 -0.000004 -59.542200 32.684900 -15.919000 -24.328900 0.000322 -0.000009 1.538890 3.811960 -22.017900 -22.291500 -0.000108 -0.000004 14.526300 5.444370 -4.439510 -2.192480 -6.469440 -0.000000 -177.721000 -15.505400 1.194010 39.081100 -0.000007 -0.000012 -0.119640 0.193860 31.680900 40.985400 -0.000006 -0.000013 2.528090 4.149010 -72.120700 11.754300 -0.000000 0.000003 -0.000176 -0.001662 -16.640500 -2.192510 6.469440 -0.000001 169.982000 19.726000 -178.758000 -39.081100 -0.002282 -0.040193 -0.103778 0.167284 32.622400 -40.985400 0.000008 0.000006 2.531980 11.249200 -72.020600 -11.754300 -0.000006 -0.000006 -0.002925 -0.039752 -18.189700
